<svg width="427" height="427.00131" xmlns="http://www.w3.org/2000/svg">

 <g>
  <title>background</title>
  <rect fill="none" id="canvas_background" height="402" width="582" y="-1" x="-1"/>
 </g>
 <g>
  <title>Layer 1</title>
  <path fill="#ffffff" id="svg_1" d="m232.39844,154.70313c-5.52344,0 -10,4.47656 -10,10l0,189c0,5.51953 4.47656,10 10,10c5.52344,0 10,-4.48047 10,-10l0,-189c0,-5.52344 -4.47656,-10 -10,-10zm0,0"/>
  <path fill="#ffffff" id="svg_2" d="m114.39844,154.70313c-5.52344,0 -10,4.47656 -10,10l0,189c0,5.51953 4.47656,10 10,10c5.52344,0 10,-4.48047 10,-10l0,-189c0,-5.52344 -4.47656,-10 -10,-10zm0,0"/>
  <path fill="#ffffff" id="svg_3" d="m28.39844,127.12109l0,246.37891c0,14.5625 5.33984,28.23828 14.66797,38.05078c9.28515,9.83985 22.20703,15.42578 35.73047,15.44922l189.20312,0c13.52734,-0.02344 26.44922,-5.60937 35.73047,-15.44922c9.32812,-9.8125 14.66797,-23.48828 14.66797,-38.05078l0,-246.37891c18.54297,-4.92187 30.55859,-22.83593 28.07812,-41.86328c-2.48437,-19.02343 -18.6914,-33.2539 -37.8789,-33.25781l-51.19922,0l0,-12.5c0.05859,-10.51172 -4.09766,-20.60547 -11.53907,-28.03125c-7.4414,-7.42187 -17.55078,-11.55469 -28.0625,-11.46875l-88.79687,0c-10.51172,-0.08594 -20.62109,4.04688 -28.0625,11.46875c-7.44141,7.42578 -11.59766,17.51953 -11.53906,28.03125l0,12.5l-51.19922,0c-19.1875,0.00391 -35.39453,14.23438 -37.87891,33.25781c-2.48047,19.02735 9.53516,36.94141 28.07813,41.86328zm239.60156,279.87891l-189.20312,0c-17.09766,0 -30.39844,-14.6875 -30.39844,-33.5l0,-245.5l250,0l0,245.5c0,18.8125 -13.30078,33.5 -30.39844,33.5zm-158.60156,-367.5c-0.06641,-5.20703 1.98047,-10.21875 5.67578,-13.89453c3.69141,-3.67578 8.71484,-5.69531 13.92578,-5.60547l88.79688,0c5.21093,-0.08984 10.23437,1.92969 13.92578,5.60547c3.69531,3.67187 5.74218,8.6875 5.67578,13.89453l0,12.5l-128,0l0,-12.5zm-71.19922,32.5l270.39844,0c9.9414,0 18,8.05859 18,18s-8.0586,18 -18,18l-270.39844,0c-9.94141,0 -18,-8.05859 -18,-18s8.05859,-18 18,-18zm0,0"/>
  <path fill="#ffffff" id="svg_4" d="m173.39844,154.70313c-5.52344,0 -10,4.47656 -10,10l0,189c0,5.51953 4.47656,10 10,10c5.52344,0 10,-4.48047 10,-10l0,-189c0,-5.52344 -4.47656,-10 -10,-10zm0,0"/>
 </g>
</svg>