<svg width="511.992" height="511.992" xmlns="http://www.w3.org/2000/svg">

 <g>
  <title>background</title>
  <rect fill="none" id="canvas_background" height="402" width="582" y="-1" x="-1"/>
 </g>
 <g>
  <title>Layer 1</title>
  <g id="svg_1">
   <g id="svg_2">
    <path fill="#ffffff" id="svg_3" d="m510.096,249.937c-4.032,-5.867 -100.928,-143.275 -254.101,-143.275c-131.435,0 -248.555,136.619 -253.483,142.443c-3.349,3.968 -3.349,9.792 0,13.781c4.928,5.824 122.048,142.443 253.483,142.443s248.554,-136.619 253.482,-142.443c3.094,-3.669 3.371,-8.981 0.619,-12.949zm-254.101,134.059c-105.365,0 -205.547,-100.48 -230.997,-128c25.408,-27.541 125.483,-128 230.997,-128c123.285,0 210.304,100.331 231.552,127.424c-24.534,26.645 -125.291,128.576 -231.552,128.576z"/>
   </g>
  </g>
  <g id="svg_4">
   <g id="svg_5">
    <path fill="#ffffff" id="svg_6" d="m255.995,170.662c-47.061,0 -85.333,38.272 -85.333,85.333s38.272,85.333 85.333,85.333s85.333,-38.272 85.333,-85.333s-38.272,-85.333 -85.333,-85.333zm0,149.334c-35.285,0 -64,-28.715 -64,-64s28.715,-64 64,-64s64,28.715 64,64s-28.715,64 -64,64z"/>
   </g>
  </g>
  <g id="svg_7"/>
  <g id="svg_8"/>
  <g id="svg_9"/>
  <g id="svg_10"/>
  <g id="svg_11"/>
  <g id="svg_12"/>
  <g id="svg_13"/>
  <g id="svg_14"/>
  <g id="svg_15"/>
  <g id="svg_16"/>
  <g id="svg_17"/>
  <g id="svg_18"/>
  <g id="svg_19"/>
  <g id="svg_20"/>
  <g id="svg_21"/>
 </g>
</svg>