<svg width="512.001" height="512.001" xmlns="http://www.w3.org/2000/svg">

 <g>
  <title>background</title>
  <rect fill="none" id="canvas_background" height="402" width="582" y="-1" x="-1"/>
 </g>
 <g>
  <title>Layer 1</title>
  <g id="svg_1">
   <g id="svg_2">
    <path fill="#ffffff" id="svg_3" d="m317.332,195.662c-4.16,-4.16 -10.923,-4.16 -15.083,0c-4.16,4.16 -4.16,10.944 0,15.083c12.075,12.075 18.752,28.139 18.752,45.248c0,35.285 -28.715,64 -64,64c-17.109,0 -33.173,-6.656 -45.248,-18.752c-4.16,-4.16 -10.923,-4.16 -15.083,0c-4.16,4.139 -4.16,10.923 0,15.083c16.085,16.128 37.525,25.003 60.331,25.003c47.061,0 85.333,-38.272 85.333,-85.333c0,-22.807 -8.874,-44.247 -25.002,-60.332z"/>
   </g>
  </g>
  <g stroke="null" id="svg_4">
   <g stroke="null" id="svg_5">
    <path stroke="null" fill="#ffffff" id="svg_6" d="m270.87,172.131c-4.843,-0.853 -9.792,-1.472 -14.869,-1.472c-47.061,0 -85.333,38.272 -85.333,85.333c0,5.077 0.619,10.027 1.493,14.869c0.917,5.163 5.419,8.811 10.475,8.811c0.619,0 1.237,-0.043 1.877,-0.171c5.781,-1.024 9.664,-6.571 8.64,-12.352c-0.661,-3.627 -1.152,-7.317 -1.152,-11.157c0,-35.285 28.715,-64 64,-64c3.84,0 7.531,0.491 11.157,1.131c5.675,1.152 11.328,-2.859 12.352,-8.64c1.024,-5.781 -2.858,-11.328 -8.64,-12.352z"/>
   </g>
  </g>
  <g id="svg_7">
   <g id="svg_8">
    <path fill="#ffffff" id="svg_9" d="m509.462,249.102c-2.411,-2.859 -60.117,-70.208 -139.712,-111.445c-5.163,-2.709 -11.669,-0.661 -14.379,4.587c-2.709,5.227 -0.661,11.669 4.587,14.379c61.312,31.744 110.293,81.28 127.04,99.371c-25.429,27.541 -125.504,128 -230.997,128c-35.797,0 -71.872,-8.64 -107.264,-25.707c-5.248,-2.581 -11.669,-0.341 -14.229,4.971c-2.581,5.291 -0.341,11.669 4.971,14.229c38.293,18.496 77.504,27.84 116.523,27.84c131.435,0 248.555,-136.619 253.483,-142.443c3.369,-3.969 3.348,-9.793 -0.023,-13.782z"/>
   </g>
  </g>
  <g id="svg_10">
   <g id="svg_11">
    <path fill="#ffffff" id="svg_12" d="m325.996,118.947c-24.277,-8.171 -47.829,-12.288 -69.995,-12.288c-131.435,0 -248.555,136.619 -253.483,142.443c-3.115,3.669 -3.371,9.003 -0.597,12.992c1.472,2.112 36.736,52.181 97.856,92.779c1.813,1.216 3.84,1.792 5.888,1.792c3.435,0 6.827,-1.664 8.875,-4.8c3.264,-4.885 1.92,-11.52 -2.987,-14.763c-44.885,-29.845 -75.605,-65.877 -87.104,-80.533c24.555,-26.667 125.291,-128.576 231.552,-128.576c19.861,0 41.131,3.755 63.189,11.157c5.589,2.005 11.648,-1.088 13.504,-6.699c1.878,-5.589 -1.109,-11.626 -6.698,-13.504z"/>
   </g>
  </g>
  <g id="svg_13">
   <g id="svg_14">
    <path fill="#ffffff" id="svg_15" d="m444.865,67.128c-4.16,-4.16 -10.923,-4.16 -15.083,0l-362.666,362.667c-4.16,4.16 -4.16,10.923 0,15.083c2.091,2.069 4.821,3.115 7.552,3.115c2.731,0 5.461,-1.045 7.531,-3.115l362.666,-362.667c4.16,-4.16 4.16,-10.923 0,-15.083z"/>
   </g>
  </g>
  <g id="svg_16"/>
  <g id="svg_17"/>
  <g id="svg_18"/>
  <g id="svg_19"/>
  <g id="svg_20"/>
  <g id="svg_21"/>
  <g id="svg_22"/>
  <g id="svg_23"/>
  <g id="svg_24"/>
  <g id="svg_25"/>
  <g id="svg_26"/>
  <g id="svg_27"/>
  <g id="svg_28"/>
  <g id="svg_29"/>
  <g id="svg_30"/>
 </g>
</svg>