<svg xmlns="http://www.w3.org/2000/svg" viewBox="0 0 48 48">
  <circle cx="24" cy="24" r="24" fill="#24292F"/>
  <path fill="#fff" d="M24 8C15.16 8 8 15.16 8 24c0 7.08 4.59 13.09 10.95 15.21.8.15 1.09-.35 1.09-.77 0-.38-.01-1.38-.02-2.71-4.45.97-5.39-2.14-5.39-2.14-.73-1.85-1.78-2.34-1.78-2.34-1.45-.99.11-.97.11-.97 1.6.11 2.45 1.65 2.45 1.65 1.43 2.44 3.74 1.74 4.65 1.33.15-1.03.56-1.74 1.01-2.14-3.55-.4-7.28-1.77-7.28-7.9 0-1.74.62-3.17 1.64-4.28-.16-.4-.71-2.02.16-4.22 0 0 1.34-.43 4.38 1.63A15.26 15.26 0 0 1 24 15.5c1.35.01 2.71.18 3.98.53 3.04-2.06 4.37-1.63 4.37-1.63.87 2.2.32 3.82.16 4.22 1.02 1.11 1.63 2.54 1.63 4.28 0 6.14-3.74 7.5-7.3 7.89.57.49 1.08 1.47 1.08 2.96 0 2.14-.02 3.86-.02 4.38 0 .43.29.93 1.1.77C35.41 37.09 40 31.08 40 24c0-8.84-7.16-16-16-16z"/>
</svg>
